<?xml version="1.0" encoding="utf-8"?>
<!-- Generator: Adobe Illustrator 27.9.1, SVG Export Plug-In . SVG Version: 6.00 Build 0)  -->
<svg version="1.1" id="Layer_1" xmlns="http://www.w3.org/2000/svg" xmlns:xlink="http://www.w3.org/1999/xlink" x="0px" y="0px"
	 viewBox="0 0 1079.9 192.47" style="enable-background:new 0 0 1079.9 192.47;" xml:space="preserve">
<style type="text/css">
	.st0{fill:#030202;}
	.st1{fill:#FFFFFF;}
</style>
<g>
	<g>
		<g>
			<g>
				<path class="st1" d="M161.18,63.3h-28.46c-1.1-6.08-3.13-11.42-6.11-16.05c-2.97-4.62-6.63-8.54-10.94-11.77
					c-4.31-3.22-9.13-5.66-14.45-7.3c-5.32-1.63-10.97-2.46-16.92-2.46c-10.76,0-20.39,2.71-28.87,8.12
					c-8.48,5.42-15.17,13.36-20.07,23.81C30.45,68.11,28,80.89,28,95.97c0,15.2,2.45,28.04,7.34,38.49
					c4.9,10.46,11.6,18.37,20.11,23.72c8.52,5.35,18.1,8.03,28.74,8.03c5.89,0,11.5-0.8,16.82-2.41c5.32-1.61,10.15-4,14.46-7.17
					c4.31-3.15,7.98-7.03,10.99-11.63c3.02-4.59,5.1-9.87,6.25-15.83l28.46,0.09c-1.52,9.19-4.45,17.63-8.8,25.32
					c-4.35,7.69-9.92,14.32-16.7,19.89c-6.77,5.57-14.51,9.86-23.21,12.9c-8.7,3.04-18.19,4.56-28.46,4.56
					c-16.19,0-30.6-3.85-43.25-11.54c-12.64-7.69-22.6-18.71-29.87-33.07S0,115.85,0,95.97c0-19.95,3.64-37.09,10.94-51.41
					s17.27-25.33,29.92-33.02C53.51,3.85,67.9,0,84.02,0c9.9,0,19.17,1.41,27.77,4.24c8.61,2.83,16.34,6.96,23.22,12.41
					c6.87,5.44,12.56,12.07,17.06,19.89C156.56,44.34,159.6,53.28,161.18,63.3z"/>
				<path class="st1" d="M551.97,95.97c0,19.94-3.66,37.08-10.94,51.4c-7.3,14.32-17.29,25.33-29.97,33.02
					c-12.68,7.69-27.09,11.54-43.19,11.54c-16.18,0-30.61-3.85-43.28-11.54c-12.69-7.69-22.67-18.71-29.97-33.07
					s-10.94-31.47-10.94-51.35c0-19.95,3.64-37.09,10.94-51.41s17.28-25.33,29.97-33.02C437.26,3.85,451.69,0,467.87,0
					c16.11,0,30.52,3.85,43.19,11.54c12.68,7.69,22.67,18.7,29.97,33.02C548.32,58.88,551.97,76.01,551.97,95.97z M524.06,95.97
					c0-15.2-2.45-28.02-7.34-38.45c-4.9-10.43-11.59-18.33-20.08-23.72c-8.47-5.38-18.08-8.07-28.77-8.07
					c-10.76,0-20.38,2.69-28.83,8.07c-8.45,5.39-15.12,13.29-20.02,23.72c-4.9,10.43-7.34,23.25-7.34,38.45s2.45,28.01,7.34,38.44
					c4.9,10.43,11.57,18.34,20.02,23.72c8.45,5.39,18.06,8.07,28.83,8.07c10.7,0,20.3-2.68,28.77-8.07
					c8.48-5.38,15.18-13.29,20.08-23.72C521.61,123.98,524.06,111.17,524.06,95.97z"/>
				<path class="st1" d="M589.05,189.37V2.55h66.59c14.48,0,26.5,2.5,36.07,7.49c9.58,4.99,16.75,11.87,21.48,20.66
					c4.75,8.79,7.12,18.92,7.12,30.42c0,11.44-2.39,21.48-7.17,30.15c-4.77,8.67-11.95,15.4-21.53,20.21
					c-9.58,4.81-21.6,7.21-36.07,7.21H605.1V94.41h47.89c9.12,0,16.56-1.31,22.31-3.92c5.75-2.62,9.95-6.42,12.63-11.4
					c2.67-4.99,4.01-10.98,4.01-17.97c0-7.05-1.35-13.16-4.06-18.33c-2.71-5.16-6.93-9.13-12.69-11.9
					c-5.75-2.76-13.27-4.15-22.57-4.15h-35.4v162.64H589.05z M681.27,105.09l46.16,84.28h-32.1l-45.25-84.28H681.27z"/>
				<path class="st1" d="M876.89,2.55h28.28v122.88c0,13.07-3.07,24.64-9.21,34.71c-6.15,10.06-14.78,17.96-25.91,23.71
					c-11.12,5.75-24.17,8.62-39.14,8.62c-14.9,0-27.91-2.87-39.03-8.62c-11.13-5.75-19.77-13.65-25.91-23.71
					c-6.14-10.07-9.21-21.64-9.21-34.71V2.55h28.18v120.6c0,8.45,1.88,15.96,5.61,22.52c3.74,6.57,9.04,11.73,15.92,15.46
					c6.87,3.74,15.02,5.61,24.45,5.61c9.49,0,17.68-1.87,24.59-5.61c6.9-3.73,12.18-8.89,15.86-15.46
					c3.69-6.56,5.52-14.07,5.52-22.52V2.55z"/>
				<path class="st1" d="M1050.17,51.63c-0.97-8.64-4.99-15.35-12.04-20.12c-7.05-4.77-15.94-7.15-26.64-7.15
					c-7.66,0-14.29,1.2-19.89,3.6s-9.93,5.69-13,9.85c-3.07,4.17-4.61,8.9-4.61,14.19c0,4.45,1.05,8.27,3.15,11.5
					c2.09,3.22,4.86,5.91,8.29,8.07c3.44,2.16,7.13,3.95,11.09,5.38c3.95,1.43,7.75,2.6,11.4,3.51l18.24,4.75
					c5.96,1.45,12.07,3.43,18.33,5.92c6.26,2.49,12.07,5.78,17.43,9.86c5.34,4.07,9.68,9.12,13,15.14
					c3.31,6.03,4.96,13.22,4.96,21.62c0,10.59-2.72,19.98-8.16,28.19c-5.44,8.2-13.31,14.69-23.63,19.43
					c-10.31,4.74-22.76,7.11-37.35,7.11c-14,0-26.09-2.21-36.31-6.65c-10.22-4.44-18.22-10.75-23.99-18.94
					c-5.78-8.17-8.98-17.89-9.58-29.14h28.28c0.55,6.75,2.75,12.36,6.61,16.83c3.87,4.47,8.82,7.78,14.87,9.94
					c6.06,2.16,12.7,3.24,19.93,3.24c7.97,0,15.07-1.26,21.31-3.79c6.23-2.52,11.14-6.05,14.73-10.57
					c3.59-4.54,5.38-9.84,5.38-15.92c0-5.53-1.56-10.07-4.69-13.59c-3.13-3.53-7.36-6.45-12.68-8.76c-5.32-2.3-11.33-4.35-18.02-6.1
					l-22.08-6.03c-14.96-4.07-26.81-10.06-35.52-17.97c-8.73-7.9-13.09-18.35-13.09-31.38c0-10.76,2.92-20.15,8.75-28.18
					s13.75-14.27,23.72-18.75S999.6,0,1012.13,0c12.65,0,23.82,2.22,33.52,6.66s17.35,10.53,22.94,18.29
					c5.6,7.75,8.52,16.64,8.76,26.68H1050.17z"/>
			</g>
		</g>
		<g>
			<rect x="196.98" y="2.55" class="st1" width="28.19" height="186.82"/>
			<polygon class="st1" points="318.31,2.55 318.31,83.74 253.24,83.74 253.24,107.92 318.31,107.92 318.31,189.37 346.59,189.37 
				346.59,2.55 			"/>
		</g>
	</g>
</g>
</svg>
