<svg width="281" height="281" viewBox="0 0 281 281" fill="none" xmlns="http://www.w3.org/2000/svg">
<path d="M0.299805 140.299C0.299805 215.193 58.7321 276.344 132.359 280.606V-0.0078125C58.7321 4.25445 0.299805 65.4049 0.299805 140.299Z" fill="black"/>
<path d="M228.993 76.452C221.7 78.9746 214.494 81.8451 206.94 83.6717C204.683 84.1936 202.339 84.5416 200.081 84.8025C199.126 84.8895 198.171 85.0635 197.129 85.0635C194.524 84.8895 191.833 84.4546 189.228 83.9327C176.899 81.6711 164.831 78.5396 152.415 76.7129V135.341C154.152 135.167 155.801 135.08 157.538 134.906C166.654 134.297 175.771 134.123 184.8 135.689C193.743 137.255 201.47 142.3 209.719 145.953C212.41 146.997 215.189 147.954 218.054 148.476C219.356 148.563 220.745 148.563 222.048 148.476C223.089 148.302 224.045 147.954 225.086 147.606C230.643 144.909 235.158 140.473 240.454 137.342C245.837 134.123 251.741 131.6 257.732 129.513C264.938 126.99 272.492 125.425 280.046 124.294C277.788 103.939 271.19 84.9765 261.205 68.2754C260.684 68.3624 260.076 68.3624 259.555 68.4494C249.05 70.1021 238.891 73.0596 228.993 76.452Z" fill="black"/>
<path d="M160.663 58.3599C165.352 59.1428 169.953 60.0996 174.555 60.9695C181.761 62.4482 188.968 64.2749 196.174 65.4057C197.042 65.4927 197.824 65.4927 198.692 65.4057C203.815 64.5358 208.764 62.7961 213.626 61.1434C225.173 57.1421 236.634 52.9668 248.616 50.6182C225.26 22.4351 191.052 3.47235 152.415 0.253906V57.1421C155.193 57.4031 157.972 57.925 160.663 58.3599Z" fill="black"/>
<path d="M248.095 155.695C244.188 158.218 240.715 161.262 236.808 163.611C231.164 166.829 224.652 168.656 218.141 168.134C211.455 167.525 205.551 165.437 199.474 162.741C195.132 160.827 191.052 158.479 186.71 156.565C184.279 155.608 181.675 154.999 179.07 154.564C170.214 153.52 161.358 154.216 152.502 154.912V212.67C153.631 212.844 154.673 213.105 155.801 213.192C163.094 214.062 170.388 213.888 177.594 213.018C179.07 212.844 180.459 212.583 181.935 212.322C190.357 210.844 198.605 208.669 206.94 206.755C212.063 205.537 217.186 204.407 222.569 204.842C232.814 205.624 242.712 208.756 252.262 212.496C254.607 213.453 257.038 214.41 259.382 215.367C272.492 194.664 280.306 170.222 281.001 144.039C273.36 145.344 265.807 147.258 258.6 150.215C254.867 151.781 251.394 153.607 248.095 155.695Z" fill="black"/>
<path d="M223.697 224.499C221.613 224.238 219.53 224.238 217.446 224.325C215.883 224.586 214.407 225.021 212.844 225.369C209.979 226.065 207.027 226.761 204.162 227.457C194.09 229.893 183.932 232.067 173.6 233.024C166.567 233.633 159.448 233.372 152.415 232.415V280.344C190.357 277.212 224.045 258.859 247.313 231.458C246.705 231.197 246.098 230.936 245.49 230.762C238.457 228.066 231.164 225.717 223.697 224.499Z" fill="black"/>
</svg>
